:SAMPLES-PER-SECOND 30
:FRAME-RANGE 1-1770
:FULLY-SPECIFIED
:DEGREES
1162
root  -22.2237 36.4801 5.47561 21.9899 -87.7429 -20.1203
RightUpLeg  -20.3524 -2.11551 13.1273
RightLeg  42.8794 -10.3844 -10.4536
RightFoot  -23.4355 -0.692847 -5.03927
RightToes  -1.33073e-015 0 -3.6325e-017
Spine  -3.87026 0.801055 7.07803
Spine1  10.019 2.21831 -3.35893
HEad  12.3588 -27.7557 0.315135
LeftShoulder1  0.91787 0.186676 -23.4136
LeftArm  0.336318 14.3437 -41.1082
LeftForeArm  25.0964 -6.24101 -11.8463
LeftHand  -0.042131 5.08787 9.12965
RightShoulder  1.89968 2.86485 24.7149
RightArm  -4.59906 10.7155 53.6331
RightForeArm  77.7908 -0.57449 12.8146
RightHand  0.271153 -7.95282 -13.3581
LeftUpLeg  -7.8405 0.102029 13.0879
LeftLeg  65.2566 -3.21736 -6.93925
LeftFoot  6.45556 2.30696 -14.9169
LeftToes  1.09107e-011 -1.16422e-010 2.98337e-011
1163
root  -23.7347 36.6701 5.07445 12.3824 -88.8231 -10.8953
RightUpLeg  -16.259 -1.73015 13.1146
RightLeg  41.099 -10.4657 -9.91663
RightFoot  -24.6152 -0.764229 -5.13147
RightToes  -1.33073e-015 0 -3.6325e-017
Spine  -3.68027 0.940837 6.37243
Spine1  9.32057 2.09179 -2.27627
HEad  13.9991 -31.0452 1.15771
LeftShoulder1  0.888764 0.195253 -22.51
LeftArm  -2.4089 13.8751 -41.8775
LeftForeArm  24.4926 -5.17254 -11.6327
LeftHand  -0.0458444 5.00808 8.14835
RightShoulder  1.95483 2.85744 25.6947
RightArm  -4.56216 11.8952 53.2951
RightForeArm  79.4601 -1.98308 12.8583
RightHand  0.36067 -8.44982 -14.5461
LeftUpLeg  -12.6027 -2.80269 12.1098
LeftLeg  67.411 -2.61208 -6.16336
LeftFoot  3.40166 1.67142 -13.035
LeftToes  1.09107e-011 -1.16422e-010 2.98337e-011
1164
root  -25.2514 37.1954 4.61911 -127.323 -88.7262 128.705
RightUpLeg  -11.7962 -0.749828 12.2024
RightLeg  37.8308 -10.0045 -8.50292
RightFoot  -23.5211 -0.694814 -5.01653
RightToes  -1.33073e-015 0 -3.6325e-017
Spine  -3.75252 1.32979 5.4267
Spine1  8.904 2.47119 -2.17864
HEad  14.7631 -33.2681 3.29667
LeftShoulder1  0.846803 0.237388 -21.4737
LeftArm  -3.26088 13.6795 -42.1757
LeftForeArm  26.5102 -4.98727 -11.4167
LeftHand  -0.0497202 4.8347 6.15981
RightShoulder  2.00135 2.89952 26.2556
RightArm  -7.36759 12.2118 54.2809
RightForeArm  80.7923 -2.77247 11.766
RightHand  0.391286 -8.66705 -14.6725
LeftUpLeg  -16.394 -4.39367 10.0409
LeftLeg  64.64 -1.19013 -2.0775
LeftFoot  -0.167374 1.16438 -11.8614
LeftToes  1.09107e-011 -1.16422e-010 2.98337e-011
1165
root  -26.7764 37.9381 4.12207 -149.765 -85.0999 151.367
RightUpLeg  -7.67011 0.471655 10.785
RightLeg  34.0785 -8.0543 -6.07722
RightFoot  -20.4076 -0.52814 -4.91757
RightToes  -1.33073e-015 0 -3.6325e-017
Spine  -3.80603 2.11144 4.76077
Spine1  8.2232 3.34381 -2.96788
HEad  14.9272 -34.5878 6.07321
LeftShoulder1  0.733891 0.60592 -21.03
LeftArm  -1.73607 14.0561 -41.6351
LeftForeArm  28.9982 -5.89572 -11.4473
LeftHand  -0.0563568 4.4661 4.56119
RightShoulder  2.06159 3.10765 26.149
RightArm  -9.76572 11.8597 56.2821
RightForeArm  79.9904 -2.55977 10.5369
RightHand  0.355206 -8.44421 -14.3769
LeftUpLeg  -18.7944 -4.27537 7.53464
LeftLeg  57.6183 1.47369 3.04458
LeftFoot  -4.7792 0.538916 -8.88925
LeftToes  1.09107e-011 -1.16422e-010 2.98337e-011
1166
root  -28.2868 38.722 3.61082 -153.572 -80.3706 155.851
RightUpLeg  -4.51709 1.55139 8.58502
RightLeg  30.8309 -4.84896 -3.36182
RightFoot  -16.3133 -0.318393 -4.79194
RightToes  -1.33073e-015 0 -3.6325e-017
Spine  -4.39747 3.07167 4.00564
Spine1  7.9743 4.42785 -4.23834
HEad  14.5597 -35.1555 8.44394
LeftShoulder1  0.562313 1.24546 -21.1473
LeftArm  1.73196 14.7101 -40.6061
LeftForeArm  29.6512 -7.62085 -11.468
LeftHand  -0.0612874 4.17618 4.03207
RightShoulder  2.10034 3.35217 25.5279
RightArm  -11.2241 11.6523 58.8435
RightForeArm  78.0331 -2.0637 9.8223
RightHand  0.278524 -7.88161 -14.0232
LeftUpLeg  -20.2039 -4.55475 4.66874
LeftLeg  46.9798 6.41548 7.72977
LeftFoot  -6.55659 0.352405 -7.48832
LeftToes  1.09107e-011 -1.16422e-010 2.98337e-011
1167
root  -29.7505 39.3443 3.09289 -154.985 -75.5506 158.319
RightUpLeg  -2.65395 3.48478 6.41269
RightLeg  28.9213 -1.66898 -1.23383
RightFoot  -12.4321 -0.121136 -3.90052
RightToes  -1.33073e-015 0 -3.6325e-017
Spine  -5.04503 3.90367 3.40124
Spine1  7.68481 5.38582 -5.46398
HEad  13.7093 -35.3223 9.85539
LeftShoulder1  0.362638 2.00521 -21.7846
LeftArm  6.16415 15.2483 -38.9426
LeftForeArm  28.8029 -9.445 -11.3087
LeftHand  -0.0655308 3.91502 3.73296
RightShoulder  2.12994 3.66514 24.4918
RightArm  -11.4108 11.5578 61.565
RightForeArm  76.1304 -1.27411 9.74612
RightHand  0.170064 -7.03332 -13.5087
LeftUpLeg  -21.0742 -5.42933 2.69381
LeftLeg  33.6838 10.889 8.06661
LeftFoot  -6.19154 0.41594 -8.41468
LeftToes  1.09107e-011 -1.16422e-010 2.98337e-011
1168
root  -31.1725 39.66 2.57718 -154.632 -70.938 159.18
RightUpLeg  -2.3232 6.13309 4.27263
RightLeg  29.5005 0.623862 0.147569
RightFoot  -9.58461 -0.0117312 -3.45856
RightToes  -1.33073e-015 0 -3.6325e-017
Spine  -5.79876 4.40221 2.5694
Spine1  7.76532 6.08179 -6.64981
HEad  11.9673 -35.0146 10.729
LeftShoulder1  0.161157 2.73949 -22.4499
LeftArm  9.79277 15.9947 -37.1359
LeftForeArm  27.8724 -11.6077 -10.5714
LeftHand  -0.060687 3.97147 3.44166
RightShoulder  2.08671 3.77888 23.3295
RightArm  -10.6334 11.4891 64.718
RightForeArm  75.2254 0.136036 10.1372
RightHand  0.0887837 -6.3596 -13.0171
LeftUpLeg  -22.0179 -7.95467 1.6814
LeftLeg  19.4276 10.8745 4.55444
LeftFoot  -6.46878 0.425186 -9.07022
LeftToes  1.09107e-011 -1.16422e-010 2.98337e-011
1169
root  -32.5312 39.6007 2.0443 -154.941 -66.9713 159.94
RightUpLeg  -2.29615 8.95776 2.70832
RightLeg  32.3334 2.23331 1.2829
RightFoot  -8.50466 1.64738e-005 -2.32398
RightToes  -1.33073e-015 0 -3.6325e-017
Spine  -5.38831 4.54341 1.61248
Spine1  7.66176 6.39987 -7.60529
HEad  10.0395 -35.0112 11.1328
LeftShoulder1  0.0163509 3.24725 -22.8953
LeftArm  12.9939 16.8805 -35.2637
LeftForeArm  25.914 -13.6506 -9.61005
LeftHand  -0.0508748 4.12541 2.84035
RightShoulder  2.08018 4.0295 22.1692
RightArm  -7.66216 11.671 67.0614
RightForeArm  73.2856 2.09201 11.4335
RightHand  0.0288619 -5.83545 -12.4673
LeftUpLeg  -23.5184 -4.35889 -1.32771
LeftLeg  9.58991 -1.57039 2.35845
LeftFoot  -9.35368 0.225134 -9.73666
LeftToes  1.09107e-011 -1.16422e-010 2.98337e-011
1170
root  -33.8819 39.1798 1.55644 -155.312 -63.4996 160.057
RightUpLeg  -2.7453 10.5323 0.961471
RightLeg  37.7425 4.12784 3.163
RightFoot  -8.52246 -0.0239857 -1.37021
RightToes  -1.33073e-015 0 -3.6325e-017
Spine  -4.31498 4.52089 0.829257
Spine1  7.39655 6.56109 -8.49689
HEad  7.87543 -35.8508 11.7101
LeftShoulder1  -0.0283503 3.40165 -22.8214
LeftArm  13.672 17.2507 -33.7851
LeftForeArm  24.9195 -14.2415 -9.2654
LeftHand  -0.0461025 4.23443 2.5466
RightShoulder  2.05435 4.06702 21.6412
RightArm  0.28908 12.2015 68.6114
RightForeArm  67.4141 5.2059 12.6806
RightHand  0.0075826 -5.63658 -12.292
LeftUpLeg  -26.1625 -4.40527 -2.76525
LeftLeg  6.957 -9.1104 0.856866
LeftFoot  -12.4555 -0.0413836 -11.8725
LeftToes  1.09107e-011 -1.16422e-010 2.98337e-011
1171
root  -35.3329 38.409 1.03173 -156.393 -61.2774 160.339
RightUpLeg  -3.32993 11.258 -0.0512398
RightLeg  45.2344 5.44879 5.55629
RightFoot  -8.44194 -0.0405485 -0.657572
RightToes  -1.33073e-015 0 -3.6325e-017
Spine  -3.45921 4.31348 0.145502
Spine1  7.28454 6.21502 -8.09428
HEad  5.88623 -37.8007 12.0905
LeftShoulder1  0.0986013 2.96004 -22.5842
LeftArm  12.1356 16.8751 -32.6889
LeftForeArm  25.6774 -13.0391 -9.90586
LeftHand  -0.0466541 4.26146 2.66077
RightShoulder  2.06384 4.12368 21.5517
RightArm  12.9386 12.6055 69.2004
RightForeArm  57.3297 9.79679 12.4923
RightHand  -0.0048727 -5.51595 -12.257
LeftUpLeg  -28.3096 -5.85975 -3.65331
LeftLeg  9.8007 -11.4111 -0.622957
LeftFoot  -15.1598 -0.32223 -12.3432
LeftToes  1.09107e-011 -1.16422e-010 2.98337e-011
1172
root  -36.7668 37.405 0.482289 -158.125 -58.7637 160.638
RightUpLeg  -4.78859 11.1933 -1.54514
RightLeg  55.0872 6.41548 9.39899
RightFoot  -6.58138 -0.0630717 0.442781
RightToes  -1.33073e-015 0 -3.6325e-017
Spine  -2.32912 4.2747 -1.24468
Spine1  7.47747 5.92081 -7.27205
HEad  5.06522 -39.7963 11.4297
LeftShoulder1  0.191477 2.6194 -21.8344
LeftArm  10.1214 16.0318 -32.244
LeftForeArm  27.3653 -10.8621 -10.9809
LeftHand  -0.0460445 4.43091 2.79957
RightShoulder  2.09509 4.25166 21.4935
RightArm  24.8085 12.9984 69.2973
RightForeArm  47.6722 13.6462 11.1071
RightHand  -0.00536726 -5.50705 -12.465
LeftUpLeg  -30.8933 -11.2232 -2.42458
LeftLeg  17.76 -9.5364 -2.3994
LeftFoot  -5.80841 0.833986 -16.4462
LeftToes  1.09107e-011 -1.16422e-010 2.98337e-011
1173
root  -38.1001 36.3261 -0.124077 -158.483 -55.9175 158.718
RightUpLeg  -7.744 10.449 -4.77313
RightLeg  66.7899 5.58229 13.4404
RightFoot  -2.01529 -0.352219 4.14696
RightToes  -1.33073e-015 0 -3.6325e-017
Spine  -0.564556 3.76751 -4.51523
Spine1  7.06 5.091 -6.05864
HEad  4.55136 -41.337 12.1752
LeftShoulder1  0.269193 2.32589 -21.3582
LeftArm  7.33024 14.374 -30.9785
LeftForeArm  29.4893 -7.71581 -12.1352
LeftHand  -0.0416946 4.70159 3.24291
RightShoulder  2.20131 4.24391 23.0248
RightArm  29.7863 14.8235 69.0094
RightForeArm  44.7681 13.7253 11.4464
RightHand  0.0198324 -5.70861 -13.5735
LeftUpLeg  -33.5667 -10.7094 -4.84442
LeftLeg  30.3196 -7.73368 -4.51261
LeftFoot  -5.2573 0.60611 -10.7897
LeftToes  1.09107e-011 -1.16422e-010 2.98337e-011
1174
root  -39.1949 35.6109 -0.738068 -159.789 -52.2971 158.105
RightUpLeg  -12.419 10.3175 -7.44488
RightLeg  76.6334 2.92776 12.9925
RightFoot  5.3884 -1.58485 10.9997
RightToes  -1.33073e-015 0 -3.6325e-017
Spine  -0.0855979 3.64504 -6.69156
Spine1  8.98887 5.02924 -6.3471
HEad  3.32523 -42.5356 13.2085
LeftShoulder1  0.572215 1.23883 -21.5644
LeftArm  3.48914 10.6989 -30.0087
LeftForeArm  30.6027 -1.37111 -13.3964
LeftHand  -0.0268799 5.32086 4.5403
RightShoulder  2.29758 4.47354 23.4295
RightArm  7.38793 16.9639 69.8296
RightForeArm  63.9121 3.87937 14.1359
RightHand  0.157697 -6.47083 -18.3629
LeftUpLeg  -34.0167 -7.80259 -7.4358
LeftLeg  38.8134 -6.3545 -5.06882
LeftFoot  -8.39695 0.168404 -4.5928
LeftToes  1.09107e-011 -1.16422e-010 2.98337e-011
